<?xml version="1.0" encoding="UTF-8" standalone="no"?>
<svg
   xmlns:dc="http://purl.org/dc/elements/1.1/"
   xmlns:cc="http://creativecommons.org/ns#"
   xmlns:rdf="http://www.w3.org/1999/02/22-rdf-syntax-ns#"
   xmlns:svg="http://www.w3.org/2000/svg"
   xmlns="http://www.w3.org/2000/svg"
   xmlns:sodipodi="http://sodipodi.sourceforge.net/DTD/sodipodi-0.dtd"
   xmlns:inkscape="http://www.inkscape.org/namespaces/inkscape"
   sodipodi:docname="icon.svg"
   inkscape:version="1.0 (4035a4f, 2020-05-01)"
   id="svg839"
   version="1.1"
   viewBox="0 0 33.866666 33.866667"
   height="128"
   width="128">
  <defs
     id="defs833">
    <filter
       height="1.0296479"
       y="-0.014824004"
       width="1.0201596"
       x="-0.010079781"
       id="filter1585"
       style="color-interpolation-filters:sRGB"
       inkscape:collect="always">
      <feGaussianBlur
         id="feGaussianBlur1587"
         stdDeviation="0.54740723"
         inkscape:collect="always" />
    </filter>
  </defs>
  <sodipodi:namedview
     width="1e-05in"
     units="px"
     inkscape:document-rotation="0"
     fit-margin-bottom="0"
     fit-margin-right="0"
     fit-margin-left="0"
     fit-margin-top="0"
     inkscape:window-maximized="1"
     inkscape:window-y="23"
     inkscape:window-x="0"
     inkscape:window-height="1035"
     inkscape:window-width="1920"
     showgrid="false"
     inkscape:current-layer="layer1"
     inkscape:document-units="px"
     inkscape:cy="30.558142"
     inkscape:cx="-88.061943"
     inkscape:zoom="1.979899"
     inkscape:pageshadow="2"
     inkscape:pageopacity="0.0"
     borderopacity="1.0"
     bordercolor="#666666"
     pagecolor="#ffffff"
     id="base" />
  <metadata
     id="metadata836">
    <rdf:RDF>
      <cc:Work
         rdf:about="">
        <dc:format>image/svg+xml</dc:format>
        <dc:type
           rdf:resource="http://purl.org/dc/dcmitype/StillImage" />
        <dc:title></dc:title>
      </cc:Work>
    </rdf:RDF>
  </metadata>
  <g
     transform="translate(-71.891885,-132.50734)"
     id="layer1"
     inkscape:groupmode="layer"
     inkscape:label="Layer 1">
    <path
       transform="matrix(0.37915718,0,0,0.37915718,-46.43327,-57.914854)"
       inkscape:connector-curvature="0"
       id="rect4567"
       d="m 371.18555,502.12891 c -2.16255,1.07396 -3.89582,2.1102 -4.11914,3.02148 -0.6711,2.73838 9.85033,12.54175 8.91406,15.20117 -0.93627,2.65943 -15.27827,3.70883 -16.4707,6.26367 -1.19244,2.55485 7.21445,14.22083 5.77734,16.64649 -1.43711,2.42566 -15.70901,0.65656 -17.37695,2.92969 -1.66795,2.27312 4.30264,15.35638 2.41992,17.45507 -1.88272,2.09866 -15.53392,-2.42159 -17.61328,-0.51757 -2.07936,1.90405 1.22277,15.90076 -1.03321,17.59179 -2.25597,1.69108 -14.76492,-5.40516 -17.17578,-3.94336 -1.79568,1.08878 -1.97296,9.33357 -2.99609,13.97657 h 27.08594 c 3.915,-1.81076 8.25399,-3.64449 8.62304,-5.15039 0.6711,-2.73839 -9.85033,-12.54175 -8.91406,-15.20118 0.93627,-2.65939 15.27827,-3.70886 16.4707,-6.26367 1.19244,-2.55485 -7.2164,-14.22082 -5.77929,-16.64648 1.43711,-2.42567 15.709,-0.65657 17.37695,-2.92969 1.66794,-2.27312 -4.30069,-15.35638 -2.41797,-17.45508 1.88272,-2.09869 15.53394,2.42163 17.61328,0.51758 2.07935,-1.90405 -1.22279,-15.90072 1.03321,-17.5918 2.25596,-1.69103 14.76298,5.40513 17.17382,3.94336 1.54505,-0.93683 1.89271,-7.16681 2.61133,-11.84765 z m 43.83203,0 c 2.30416,1.35274 4.3288,2.35924 5.2793,2.01367 0.53758,-0.19545 1.06056,-0.95228 1.57617,-2.01367 z m -120.43946,84.41797 c -0.22589,-0.0156 -0.42423,0.004 -0.58984,0.0644 -0.84442,0.307 -1.65384,2.01331 -2.45312,4.14258 h 11.25586 c -3.18149,-1.95075 -6.50031,-4.08861 -8.2129,-4.20703 z"
       style="fill:#a19efc;fill-opacity:1;stroke:none;stroke-width:3.77953;stroke-opacity:1;filter:url(#filter1585)" />
  </g>
</svg>
